<svg xmlns="http://www.w3.org/2000/svg" viewBox="0 0 740 420" role="img" aria-label="ブレッドボードの内部構造">
  <title>ブレッドボードの電気的接続：電源レール 4 本、信号列 A-E / F-J の内部配線、中央ギャップの意味</title>
  <defs>
    <style>
      .lbl   { font-family: "Noto Sans JP", system-ui, sans-serif; font-size: 12px; fill: #222; }
      .big   { font-family: "Noto Sans JP", system-ui, sans-serif; font-size: 14px; fill: #222; font-weight: bold; }
      .mono  { font-family: monospace; font-size: 11px; fill: #444; }
      .board { fill: #fafafa; stroke: #888; stroke-width: 2; }
      .hole  { fill: #eeeeee; stroke: #aaa; stroke-width: 0.5; }
      .hole-pwr-plus  { fill: #ffcdd2; stroke: #c62828; stroke-width: 0.8; }
      .hole-pwr-minus { fill: #dddddd; stroke: #212121; stroke-width: 0.8; }
      .hole-row-a { fill: #bbdefb; stroke: #1565c0; stroke-width: 0.8; }
      .hole-row-b { fill: #c8e6c9; stroke: #2e7d32; stroke-width: 0.8; }
      .conn-red  { stroke: #c62828; stroke-width: 2; fill: none; }
      .conn-blk  { stroke: #212121; stroke-width: 2; fill: none; }
      .conn-blue { stroke: #1565c0; stroke-width: 2; fill: none; }
      .conn-grn  { stroke: #2e7d32; stroke-width: 2; fill: none; }
      .gap-line { stroke: #c62828; stroke-width: 2; stroke-dasharray: 4 3; fill: none; }
      .arrow { stroke: #666; stroke-width: 1.2; fill: none; }
    </style>
  </defs>

  <!-- Title -->
  <text x="370" y="25" text-anchor="middle" class="big">ブレッドボードの内部構造（どの穴と穴が繋がっているか）</text>

  <!-- Main breadboard body -->
  <rect x="60" y="60" width="620" height="240" rx="6" class="board"/>

  <!-- =================== Power rail LEFT =================== -->
  <!-- + rail: top strip of holes -->
  <text x="50" y="84" text-anchor="end" class="big" fill="#c62828">+</text>
  <text x="50" y="104" text-anchor="end" class="big" fill="#212121">−</text>

  <!-- Draw 20 holes for + rail (top) -->
  <g>
    <!-- + rail holes -->
    <circle cx="100" cy="80" r="4" class="hole-pwr-plus"/>
    <circle cx="120" cy="80" r="4" class="hole-pwr-plus"/>
    <circle cx="140" cy="80" r="4" class="hole-pwr-plus"/>
    <circle cx="160" cy="80" r="4" class="hole-pwr-plus"/>
    <circle cx="180" cy="80" r="4" class="hole-pwr-plus"/>
    <circle cx="200" cy="80" r="4" class="hole-pwr-plus"/>
    <circle cx="220" cy="80" r="4" class="hole-pwr-plus"/>
    <circle cx="240" cy="80" r="4" class="hole-pwr-plus"/>
    <circle cx="260" cy="80" r="4" class="hole-pwr-plus"/>
    <circle cx="280" cy="80" r="4" class="hole-pwr-plus"/>
    <circle cx="300" cy="80" r="4" class="hole-pwr-plus"/>
    <circle cx="320" cy="80" r="4" class="hole-pwr-plus"/>
    <circle cx="340" cy="80" r="4" class="hole-pwr-plus"/>
    <circle cx="360" cy="80" r="4" class="hole-pwr-plus"/>
    <circle cx="380" cy="80" r="4" class="hole-pwr-plus"/>
    <circle cx="400" cy="80" r="4" class="hole-pwr-plus"/>
    <circle cx="420" cy="80" r="4" class="hole-pwr-plus"/>
    <circle cx="440" cy="80" r="4" class="hole-pwr-plus"/>
    <circle cx="460" cy="80" r="4" class="hole-pwr-plus"/>
    <circle cx="480" cy="80" r="4" class="hole-pwr-plus"/>
    <circle cx="500" cy="80" r="4" class="hole-pwr-plus"/>
    <circle cx="520" cy="80" r="4" class="hole-pwr-plus"/>
    <circle cx="540" cy="80" r="4" class="hole-pwr-plus"/>
    <circle cx="560" cy="80" r="4" class="hole-pwr-plus"/>
    <circle cx="580" cy="80" r="4" class="hole-pwr-plus"/>
    <circle cx="600" cy="80" r="4" class="hole-pwr-plus"/>
    <circle cx="620" cy="80" r="4" class="hole-pwr-plus"/>
    <circle cx="640" cy="80" r="4" class="hole-pwr-plus"/>
    <!-- Internal red line showing + rail is all connected -->
    <line x1="100" y1="80" x2="640" y2="80" class="conn-red" stroke-dasharray="1 2" opacity="0.6"/>

    <!-- - rail holes -->
    <circle cx="100" cy="100" r="4" class="hole-pwr-minus"/>
    <circle cx="120" cy="100" r="4" class="hole-pwr-minus"/>
    <circle cx="140" cy="100" r="4" class="hole-pwr-minus"/>
    <circle cx="160" cy="100" r="4" class="hole-pwr-minus"/>
    <circle cx="180" cy="100" r="4" class="hole-pwr-minus"/>
    <circle cx="200" cy="100" r="4" class="hole-pwr-minus"/>
    <circle cx="220" cy="100" r="4" class="hole-pwr-minus"/>
    <circle cx="240" cy="100" r="4" class="hole-pwr-minus"/>
    <circle cx="260" cy="100" r="4" class="hole-pwr-minus"/>
    <circle cx="280" cy="100" r="4" class="hole-pwr-minus"/>
    <circle cx="300" cy="100" r="4" class="hole-pwr-minus"/>
    <circle cx="320" cy="100" r="4" class="hole-pwr-minus"/>
    <circle cx="340" cy="100" r="4" class="hole-pwr-minus"/>
    <circle cx="360" cy="100" r="4" class="hole-pwr-minus"/>
    <circle cx="380" cy="100" r="4" class="hole-pwr-minus"/>
    <circle cx="400" cy="100" r="4" class="hole-pwr-minus"/>
    <circle cx="420" cy="100" r="4" class="hole-pwr-minus"/>
    <circle cx="440" cy="100" r="4" class="hole-pwr-minus"/>
    <circle cx="460" cy="100" r="4" class="hole-pwr-minus"/>
    <circle cx="480" cy="100" r="4" class="hole-pwr-minus"/>
    <circle cx="500" cy="100" r="4" class="hole-pwr-minus"/>
    <circle cx="520" cy="100" r="4" class="hole-pwr-minus"/>
    <circle cx="540" cy="100" r="4" class="hole-pwr-minus"/>
    <circle cx="560" cy="100" r="4" class="hole-pwr-minus"/>
    <circle cx="580" cy="100" r="4" class="hole-pwr-minus"/>
    <circle cx="600" cy="100" r="4" class="hole-pwr-minus"/>
    <circle cx="620" cy="100" r="4" class="hole-pwr-minus"/>
    <circle cx="640" cy="100" r="4" class="hole-pwr-minus"/>
    <line x1="100" y1="100" x2="640" y2="100" class="conn-blk" stroke-dasharray="1 2" opacity="0.6"/>
  </g>

  <!-- =================== Signal rows A-E (upper block) =================== -->
  <g>
    <text x="50" y="140" text-anchor="end" class="mono">A</text>
    <text x="50" y="155" text-anchor="end" class="mono">B</text>
    <text x="50" y="170" text-anchor="end" class="mono">C</text>
    <text x="50" y="185" text-anchor="end" class="mono">D</text>
    <text x="50" y="200" text-anchor="end" class="mono">E</text>

    <!-- Columns 1-3: highlighted in blue (connected vertically) -->
    <!-- Col 1 -->
    <circle cx="100" cy="140" r="4" class="hole-row-a"/>
    <circle cx="100" cy="155" r="4" class="hole-row-a"/>
    <circle cx="100" cy="170" r="4" class="hole-row-a"/>
    <circle cx="100" cy="185" r="4" class="hole-row-a"/>
    <circle cx="100" cy="200" r="4" class="hole-row-a"/>
    <line x1="100" y1="140" x2="100" y2="200" class="conn-blue" stroke-dasharray="1 2" opacity="0.6"/>

    <!-- Col 2 -->
    <circle cx="120" cy="140" r="4" class="hole-row-a"/>
    <circle cx="120" cy="155" r="4" class="hole-row-a"/>
    <circle cx="120" cy="170" r="4" class="hole-row-a"/>
    <circle cx="120" cy="185" r="4" class="hole-row-a"/>
    <circle cx="120" cy="200" r="4" class="hole-row-a"/>
    <line x1="120" y1="140" x2="120" y2="200" class="conn-blue" stroke-dasharray="1 2" opacity="0.6"/>

    <!-- Col 3 -->
    <circle cx="140" cy="140" r="4" class="hole-row-a"/>
    <circle cx="140" cy="155" r="4" class="hole-row-a"/>
    <circle cx="140" cy="170" r="4" class="hole-row-a"/>
    <circle cx="140" cy="185" r="4" class="hole-row-a"/>
    <circle cx="140" cy="200" r="4" class="hole-row-a"/>
    <line x1="140" y1="140" x2="140" y2="200" class="conn-blue" stroke-dasharray="1 2" opacity="0.6"/>

    <!-- Rest of columns (plain) 4-28 -->
    <g>
      <circle cx="160" cy="140" r="4" class="hole"/><circle cx="160" cy="155" r="4" class="hole"/><circle cx="160" cy="170" r="4" class="hole"/><circle cx="160" cy="185" r="4" class="hole"/><circle cx="160" cy="200" r="4" class="hole"/>
      <circle cx="180" cy="140" r="4" class="hole"/><circle cx="180" cy="155" r="4" class="hole"/><circle cx="180" cy="170" r="4" class="hole"/><circle cx="180" cy="185" r="4" class="hole"/><circle cx="180" cy="200" r="4" class="hole"/>
      <circle cx="200" cy="140" r="4" class="hole"/><circle cx="200" cy="155" r="4" class="hole"/><circle cx="200" cy="170" r="4" class="hole"/><circle cx="200" cy="185" r="4" class="hole"/><circle cx="200" cy="200" r="4" class="hole"/>
      <circle cx="220" cy="140" r="4" class="hole"/><circle cx="220" cy="155" r="4" class="hole"/><circle cx="220" cy="170" r="4" class="hole"/><circle cx="220" cy="185" r="4" class="hole"/><circle cx="220" cy="200" r="4" class="hole"/>
      <circle cx="240" cy="140" r="4" class="hole"/><circle cx="240" cy="155" r="4" class="hole"/><circle cx="240" cy="170" r="4" class="hole"/><circle cx="240" cy="185" r="4" class="hole"/><circle cx="240" cy="200" r="4" class="hole"/>
      <circle cx="260" cy="140" r="4" class="hole"/><circle cx="260" cy="155" r="4" class="hole"/><circle cx="260" cy="170" r="4" class="hole"/><circle cx="260" cy="185" r="4" class="hole"/><circle cx="260" cy="200" r="4" class="hole"/>
      <circle cx="280" cy="140" r="4" class="hole"/><circle cx="280" cy="155" r="4" class="hole"/><circle cx="280" cy="170" r="4" class="hole"/><circle cx="280" cy="185" r="4" class="hole"/><circle cx="280" cy="200" r="4" class="hole"/>
      <circle cx="300" cy="140" r="4" class="hole"/><circle cx="300" cy="155" r="4" class="hole"/><circle cx="300" cy="170" r="4" class="hole"/><circle cx="300" cy="185" r="4" class="hole"/><circle cx="300" cy="200" r="4" class="hole"/>
      <circle cx="320" cy="140" r="4" class="hole"/><circle cx="320" cy="155" r="4" class="hole"/><circle cx="320" cy="170" r="4" class="hole"/><circle cx="320" cy="185" r="4" class="hole"/><circle cx="320" cy="200" r="4" class="hole"/>
      <circle cx="340" cy="140" r="4" class="hole"/><circle cx="340" cy="155" r="4" class="hole"/><circle cx="340" cy="170" r="4" class="hole"/><circle cx="340" cy="185" r="4" class="hole"/><circle cx="340" cy="200" r="4" class="hole"/>
      <circle cx="360" cy="140" r="4" class="hole"/><circle cx="360" cy="155" r="4" class="hole"/><circle cx="360" cy="170" r="4" class="hole"/><circle cx="360" cy="185" r="4" class="hole"/><circle cx="360" cy="200" r="4" class="hole"/>
      <circle cx="380" cy="140" r="4" class="hole"/><circle cx="380" cy="155" r="4" class="hole"/><circle cx="380" cy="170" r="4" class="hole"/><circle cx="380" cy="185" r="4" class="hole"/><circle cx="380" cy="200" r="4" class="hole"/>
      <circle cx="400" cy="140" r="4" class="hole"/><circle cx="400" cy="155" r="4" class="hole"/><circle cx="400" cy="170" r="4" class="hole"/><circle cx="400" cy="185" r="4" class="hole"/><circle cx="400" cy="200" r="4" class="hole"/>
      <circle cx="420" cy="140" r="4" class="hole"/><circle cx="420" cy="155" r="4" class="hole"/><circle cx="420" cy="170" r="4" class="hole"/><circle cx="420" cy="185" r="4" class="hole"/><circle cx="420" cy="200" r="4" class="hole"/>
      <circle cx="440" cy="140" r="4" class="hole"/><circle cx="440" cy="155" r="4" class="hole"/><circle cx="440" cy="170" r="4" class="hole"/><circle cx="440" cy="185" r="4" class="hole"/><circle cx="440" cy="200" r="4" class="hole"/>
      <circle cx="460" cy="140" r="4" class="hole"/><circle cx="460" cy="155" r="4" class="hole"/><circle cx="460" cy="170" r="4" class="hole"/><circle cx="460" cy="185" r="4" class="hole"/><circle cx="460" cy="200" r="4" class="hole"/>
      <circle cx="480" cy="140" r="4" class="hole"/><circle cx="480" cy="155" r="4" class="hole"/><circle cx="480" cy="170" r="4" class="hole"/><circle cx="480" cy="185" r="4" class="hole"/><circle cx="480" cy="200" r="4" class="hole"/>
      <circle cx="500" cy="140" r="4" class="hole"/><circle cx="500" cy="155" r="4" class="hole"/><circle cx="500" cy="170" r="4" class="hole"/><circle cx="500" cy="185" r="4" class="hole"/><circle cx="500" cy="200" r="4" class="hole"/>
      <circle cx="520" cy="140" r="4" class="hole"/><circle cx="520" cy="155" r="4" class="hole"/><circle cx="520" cy="170" r="4" class="hole"/><circle cx="520" cy="185" r="4" class="hole"/><circle cx="520" cy="200" r="4" class="hole"/>
      <circle cx="540" cy="140" r="4" class="hole"/><circle cx="540" cy="155" r="4" class="hole"/><circle cx="540" cy="170" r="4" class="hole"/><circle cx="540" cy="185" r="4" class="hole"/><circle cx="540" cy="200" r="4" class="hole"/>
      <circle cx="560" cy="140" r="4" class="hole"/><circle cx="560" cy="155" r="4" class="hole"/><circle cx="560" cy="170" r="4" class="hole"/><circle cx="560" cy="185" r="4" class="hole"/><circle cx="560" cy="200" r="4" class="hole"/>
      <circle cx="580" cy="140" r="4" class="hole"/><circle cx="580" cy="155" r="4" class="hole"/><circle cx="580" cy="170" r="4" class="hole"/><circle cx="580" cy="185" r="4" class="hole"/><circle cx="580" cy="200" r="4" class="hole"/>
      <circle cx="600" cy="140" r="4" class="hole"/><circle cx="600" cy="155" r="4" class="hole"/><circle cx="600" cy="170" r="4" class="hole"/><circle cx="600" cy="185" r="4" class="hole"/><circle cx="600" cy="200" r="4" class="hole"/>
      <circle cx="620" cy="140" r="4" class="hole"/><circle cx="620" cy="155" r="4" class="hole"/><circle cx="620" cy="170" r="4" class="hole"/><circle cx="620" cy="185" r="4" class="hole"/><circle cx="620" cy="200" r="4" class="hole"/>
      <circle cx="640" cy="140" r="4" class="hole"/><circle cx="640" cy="155" r="4" class="hole"/><circle cx="640" cy="170" r="4" class="hole"/><circle cx="640" cy="185" r="4" class="hole"/><circle cx="640" cy="200" r="4" class="hole"/>
    </g>
  </g>

  <!-- Center gap (shows electrical separation between A-E and F-J) -->
  <line x1="80" y1="215" x2="660" y2="215" class="gap-line"/>
  <text x="370" y="228" text-anchor="middle" class="lbl" fill="#c62828">← 中央ギャップ：上下は電気的に分離（DIP-IC をまたがせる）→</text>

  <!-- =================== Signal rows F-J (lower block) =================== -->
  <g>
    <text x="50" y="240" text-anchor="end" class="mono">F</text>
    <text x="50" y="255" text-anchor="end" class="mono">G</text>
    <text x="50" y="270" text-anchor="end" class="mono">H</text>
    <text x="50" y="285" text-anchor="end" class="mono">I</text>
    <text x="50" y="300" text-anchor="end" class="mono">J</text>

    <!-- Column 5: highlighted in green (all vertically connected) -->
    <circle cx="180" cy="240" r="4" class="hole-row-b"/>
    <circle cx="180" cy="255" r="4" class="hole-row-b"/>
    <circle cx="180" cy="270" r="4" class="hole-row-b"/>
    <circle cx="180" cy="285" r="4" class="hole-row-b"/>
    <circle cx="180" cy="300" r="4" class="hole-row-b"/>
    <line x1="180" y1="240" x2="180" y2="300" class="conn-grn" stroke-dasharray="1 2" opacity="0.6"/>

    <!-- Other columns plain -->
    <g>
      <circle cx="100" cy="240" r="4" class="hole"/><circle cx="100" cy="255" r="4" class="hole"/><circle cx="100" cy="270" r="4" class="hole"/><circle cx="100" cy="285" r="4" class="hole"/><circle cx="100" cy="300" r="4" class="hole"/>
      <circle cx="120" cy="240" r="4" class="hole"/><circle cx="120" cy="255" r="4" class="hole"/><circle cx="120" cy="270" r="4" class="hole"/><circle cx="120" cy="285" r="4" class="hole"/><circle cx="120" cy="300" r="4" class="hole"/>
      <circle cx="140" cy="240" r="4" class="hole"/><circle cx="140" cy="255" r="4" class="hole"/><circle cx="140" cy="270" r="4" class="hole"/><circle cx="140" cy="285" r="4" class="hole"/><circle cx="140" cy="300" r="4" class="hole"/>
      <circle cx="160" cy="240" r="4" class="hole"/><circle cx="160" cy="255" r="4" class="hole"/><circle cx="160" cy="270" r="4" class="hole"/><circle cx="160" cy="285" r="4" class="hole"/><circle cx="160" cy="300" r="4" class="hole"/>
      <circle cx="200" cy="240" r="4" class="hole"/><circle cx="200" cy="255" r="4" class="hole"/><circle cx="200" cy="270" r="4" class="hole"/><circle cx="200" cy="285" r="4" class="hole"/><circle cx="200" cy="300" r="4" class="hole"/>
      <circle cx="220" cy="240" r="4" class="hole"/><circle cx="220" cy="255" r="4" class="hole"/><circle cx="220" cy="270" r="4" class="hole"/><circle cx="220" cy="285" r="4" class="hole"/><circle cx="220" cy="300" r="4" class="hole"/>
      <circle cx="240" cy="240" r="4" class="hole"/><circle cx="240" cy="255" r="4" class="hole"/><circle cx="240" cy="270" r="4" class="hole"/><circle cx="240" cy="285" r="4" class="hole"/><circle cx="240" cy="300" r="4" class="hole"/>
      <circle cx="260" cy="240" r="4" class="hole"/><circle cx="260" cy="255" r="4" class="hole"/><circle cx="260" cy="270" r="4" class="hole"/><circle cx="260" cy="285" r="4" class="hole"/><circle cx="260" cy="300" r="4" class="hole"/>
      <circle cx="280" cy="240" r="4" class="hole"/><circle cx="280" cy="255" r="4" class="hole"/><circle cx="280" cy="270" r="4" class="hole"/><circle cx="280" cy="285" r="4" class="hole"/><circle cx="280" cy="300" r="4" class="hole"/>
      <circle cx="300" cy="240" r="4" class="hole"/><circle cx="300" cy="255" r="4" class="hole"/><circle cx="300" cy="270" r="4" class="hole"/><circle cx="300" cy="285" r="4" class="hole"/><circle cx="300" cy="300" r="4" class="hole"/>
      <circle cx="320" cy="240" r="4" class="hole"/><circle cx="320" cy="255" r="4" class="hole"/><circle cx="320" cy="270" r="4" class="hole"/><circle cx="320" cy="285" r="4" class="hole"/><circle cx="320" cy="300" r="4" class="hole"/>
      <circle cx="340" cy="240" r="4" class="hole"/><circle cx="340" cy="255" r="4" class="hole"/><circle cx="340" cy="270" r="4" class="hole"/><circle cx="340" cy="285" r="4" class="hole"/><circle cx="340" cy="300" r="4" class="hole"/>
      <circle cx="360" cy="240" r="4" class="hole"/><circle cx="360" cy="255" r="4" class="hole"/><circle cx="360" cy="270" r="4" class="hole"/><circle cx="360" cy="285" r="4" class="hole"/><circle cx="360" cy="300" r="4" class="hole"/>
      <circle cx="380" cy="240" r="4" class="hole"/><circle cx="380" cy="255" r="4" class="hole"/><circle cx="380" cy="270" r="4" class="hole"/><circle cx="380" cy="285" r="4" class="hole"/><circle cx="380" cy="300" r="4" class="hole"/>
      <circle cx="400" cy="240" r="4" class="hole"/><circle cx="400" cy="255" r="4" class="hole"/><circle cx="400" cy="270" r="4" class="hole"/><circle cx="400" cy="285" r="4" class="hole"/><circle cx="400" cy="300" r="4" class="hole"/>
      <circle cx="420" cy="240" r="4" class="hole"/><circle cx="420" cy="255" r="4" class="hole"/><circle cx="420" cy="270" r="4" class="hole"/><circle cx="420" cy="285" r="4" class="hole"/><circle cx="420" cy="300" r="4" class="hole"/>
      <circle cx="440" cy="240" r="4" class="hole"/><circle cx="440" cy="255" r="4" class="hole"/><circle cx="440" cy="270" r="4" class="hole"/><circle cx="440" cy="285" r="4" class="hole"/><circle cx="440" cy="300" r="4" class="hole"/>
      <circle cx="460" cy="240" r="4" class="hole"/><circle cx="460" cy="255" r="4" class="hole"/><circle cx="460" cy="270" r="4" class="hole"/><circle cx="460" cy="285" r="4" class="hole"/><circle cx="460" cy="300" r="4" class="hole"/>
      <circle cx="480" cy="240" r="4" class="hole"/><circle cx="480" cy="255" r="4" class="hole"/><circle cx="480" cy="270" r="4" class="hole"/><circle cx="480" cy="285" r="4" class="hole"/><circle cx="480" cy="300" r="4" class="hole"/>
      <circle cx="500" cy="240" r="4" class="hole"/><circle cx="500" cy="255" r="4" class="hole"/><circle cx="500" cy="270" r="4" class="hole"/><circle cx="500" cy="285" r="4" class="hole"/><circle cx="500" cy="300" r="4" class="hole"/>
      <circle cx="520" cy="240" r="4" class="hole"/><circle cx="520" cy="255" r="4" class="hole"/><circle cx="520" cy="270" r="4" class="hole"/><circle cx="520" cy="285" r="4" class="hole"/><circle cx="520" cy="300" r="4" class="hole"/>
      <circle cx="540" cy="240" r="4" class="hole"/><circle cx="540" cy="255" r="4" class="hole"/><circle cx="540" cy="270" r="4" class="hole"/><circle cx="540" cy="285" r="4" class="hole"/><circle cx="540" cy="300" r="4" class="hole"/>
      <circle cx="560" cy="240" r="4" class="hole"/><circle cx="560" cy="255" r="4" class="hole"/><circle cx="560" cy="270" r="4" class="hole"/><circle cx="560" cy="285" r="4" class="hole"/><circle cx="560" cy="300" r="4" class="hole"/>
      <circle cx="580" cy="240" r="4" class="hole"/><circle cx="580" cy="255" r="4" class="hole"/><circle cx="580" cy="270" r="4" class="hole"/><circle cx="580" cy="285" r="4" class="hole"/><circle cx="580" cy="300" r="4" class="hole"/>
      <circle cx="600" cy="240" r="4" class="hole"/><circle cx="600" cy="255" r="4" class="hole"/><circle cx="600" cy="270" r="4" class="hole"/><circle cx="600" cy="285" r="4" class="hole"/><circle cx="600" cy="300" r="4" class="hole"/>
      <circle cx="620" cy="240" r="4" class="hole"/><circle cx="620" cy="255" r="4" class="hole"/><circle cx="620" cy="270" r="4" class="hole"/><circle cx="620" cy="285" r="4" class="hole"/><circle cx="620" cy="300" r="4" class="hole"/>
      <circle cx="640" cy="240" r="4" class="hole"/><circle cx="640" cy="255" r="4" class="hole"/><circle cx="640" cy="270" r="4" class="hole"/><circle cx="640" cy="285" r="4" class="hole"/><circle cx="640" cy="300" r="4" class="hole"/>
    </g>
  </g>

  <!-- =================== Annotations =================== -->
  <g>
    <!-- Power rail annotation -->
    <text x="680" y="85" class="lbl" fill="#c62828">＋レール（全長 つながる）</text>
    <text x="680" y="105" class="lbl" fill="#212121">−レール（全長 つながる）</text>

    <!-- Signal column annotation (blue) -->
    <text x="205" y="133" class="lbl" fill="#1565c0">⬆ A-E は 縦 5 穴で 1 グループ（全部つながる）</text>

    <!-- Signal column annotation (green) -->
    <text x="260" y="310" class="lbl" fill="#2e7d32">⬆ F-J も 縦 5 穴で 1 グループ（上下の A-E とは 分離）</text>
  </g>

  <!-- Bottom summary box -->
  <rect x="60" y="340" width="620" height="70" rx="6" fill="#f5f5f5" stroke="#888" stroke-width="1"/>
  <text x="370" y="360" text-anchor="middle" class="big">覚えるべき 3 つの事実</text>
  <text x="80" y="380" class="lbl">1. <tspan font-weight="bold">電源レール（＋／−）は全長</tspan>が 1 本のラインとしてつながっている</text>
  <text x="80" y="398" class="lbl">2. 信号列 <tspan font-weight="bold">A-E（上段）と F-J（下段）は縦 5 穴ずつ</tspan>で 1 グループ、中央ギャップで 上下分離</text>
  <text x="370" y="398" class="lbl">3. 異なる列（1 列目と 2 列目 等）は <tspan font-weight="bold">繋がっていない</tspan></text>
</svg>
